<svg xmlns="http://www.w3.org/2000/svg" xmlns:xlink="http://www.w3.org/1999/xlink" width="500" zoomAndPan="magnify" viewBox="0 0 375 374.999991" height="500" preserveAspectRatio="xMidYMid meet" version="1.0"><defs><clipPath id="9c5a4a8503"><path d="M 102.53125 113 L 272 113 L 272 270 L 102.53125 270 Z M 102.53125 113 " clip-rule="nonzero"/></clipPath></defs><g clip-path="url(#9c5a4a8503)"><path fill="#000000" d="M 270.117188 227.613281 L 230.871094 146.921875 C 229.847656 144.816406 228.136719 143.078125 226.0625 142.027344 L 181.847656 119.714844 C 177.894531 117.644531 172.859375 118.371094 169.664062 121.425781 C 172.988281 123.921875 176.019531 126.910156 178.621094 130.328125 C 187.476562 127.535156 192.578125 139.957031 184.25 144.226562 C 176.941406 147.839844 169.796875 138.378906 175.394531 132.367188 C 173.023438 129.34375 170.355469 126.648438 167.390625 124.449219 C 166.207031 126.320312 156.691406 175.277344 156.496094 177.707031 C 156.496094 179.351562 156.855469 180.960938 157.582031 182.4375 L 196.859375 263.132812 C 199.261719 268.355469 206.109375 270.722656 211.246094 268.09375 C 211.246094 268.09375 265.144531 241.972656 265.144531 241.972656 C 270.378906 239.542969 272.78125 232.742188 270.117188 227.613281 Z M 256.617188 230.046875 C 255.957031 231.984375 254.542969 233.59375 252.664062 234.480469 L 213.089844 253.667969 C 209.371094 255.542969 204.464844 253.867188 202.71875 250.089844 C 202.71875 250.089844 174.800781 192.722656 174.800781 192.722656 C 172.890625 188.976562 174.601562 184.113281 178.390625 182.371094 L 217.964844 163.183594 C 221.652344 161.277344 226.589844 162.988281 228.335938 166.765625 L 256.253906 224.132812 C 257.144531 226.003906 257.273438 228.109375 256.617188 230.046875 Z M 157.152344 154.148438 L 156.332031 158.355469 C 146.023438 161.476562 137.925781 164.859375 132.261719 168.507812 C 129.957031 169.921875 125.910156 172.710938 120.3125 172.777344 C 110.664062 172.746094 103.355469 164.105469 102.894531 154.378906 C 102.53125 147.875 106.023438 141.53125 109.675781 135.585938 C 118.765625 119.488281 142.273438 104.242188 166.46875 119.222656 L 164.265625 122.277344 C 158.140625 118.535156 151.128906 116.628906 144.082031 116.957031 C 126.765625 117.8125 116.492188 131.644531 112.902344 137.558594 C 109.578125 143.011719 106.382812 148.761719 106.613281 154.214844 C 107.011719 161.34375 111.621094 167.75 118.46875 168.867188 C 123.667969 169.625 127.816406 166.832031 130.121094 165.320312 C 136.574219 161.214844 145.433594 157.566406 157.152344 154.148438 Z M 252.832031 225.773438 C 253.292969 226.726562 253.355469 227.8125 252.996094 228.796875 C 252.664062 229.816406 251.941406 230.605469 250.988281 231.066406 L 211.410156 250.253906 C 210.457031 250.710938 209.371094 250.777344 208.382812 250.449219 C 207.363281 250.089844 206.570312 249.398438 206.109375 248.445312 L 178.191406 191.078125 C 177.203125 189.171875 178.09375 186.710938 180.003906 185.789062 L 219.609375 166.570312 C 221.519531 165.617188 223.988281 166.46875 224.910156 168.410156 Z M 180.988281 133.714844 C 184.84375 133.679688 186.160156 139.167969 182.601562 140.808594 C 179.375 142.417969 175.886719 138.675781 177.699219 135.617188 C 178.75 137.03125 179.476562 140.25 181.847656 139.132812 C 184.152344 137.753906 181.8125 135.324219 180.988281 133.714844 Z M 180.988281 133.714844 " fill-opacity="1" fill-rule="nonzero"/></g></svg>