<svg xmlns="http://www.w3.org/2000/svg" xmlns:xlink="http://www.w3.org/1999/xlink" width="500" zoomAndPan="magnify" viewBox="0 0 375 374.999991" height="500" preserveAspectRatio="xMidYMid meet" version="1.0"><defs><clipPath id="722330b76a"><path d="M 112.5 113.25 L 262.5 113.25 L 262.5 261.75 L 112.5 261.75 Z M 112.5 113.25 " clip-rule="nonzero"/></clipPath><clipPath id="b4090cd576"><path d="M 262.457031 187.5 C 262.457031 188.714844 262.425781 189.929688 262.367188 191.144531 C 262.304688 192.355469 262.214844 193.570312 262.097656 194.777344 C 261.976562 195.988281 261.824219 197.191406 261.644531 198.394531 C 261.464844 199.597656 261.257812 200.792969 261.015625 201.984375 C 260.777344 203.175781 260.507812 204.363281 260.210938 205.542969 C 259.914062 206.71875 259.585938 207.890625 259.230469 209.054688 C 258.875 210.214844 258.488281 211.371094 258.074219 212.515625 C 257.664062 213.65625 257.222656 214.792969 256.75 215.914062 C 256.28125 217.035156 255.785156 218.148438 255.261719 219.246094 C 254.734375 220.34375 254.183594 221.429688 253.605469 222.5 C 253.027344 223.574219 252.421875 224.628906 251.792969 225.671875 C 251.164062 226.714844 250.507812 227.742188 249.824219 228.75 C 249.144531 229.761719 248.4375 230.753906 247.707031 231.730469 C 246.976562 232.707031 246.222656 233.664062 245.441406 234.605469 C 244.664062 235.542969 243.863281 236.460938 243.039062 237.363281 C 242.214844 238.261719 241.371094 239.144531 240.503906 240.003906 C 239.636719 240.863281 238.746094 241.699219 237.839844 242.515625 C 236.929688 243.332031 236 244.125 235.050781 244.894531 C 234.105469 245.667969 233.136719 246.414062 232.152344 247.136719 C 231.167969 247.863281 230.164062 248.5625 229.144531 249.238281 C 228.125 249.910156 227.085938 250.5625 226.035156 251.1875 C 224.984375 251.8125 223.917969 252.410156 222.835938 252.984375 C 221.753906 253.554688 220.65625 254.101562 219.546875 254.621094 C 218.4375 255.140625 217.316406 255.632812 216.183594 256.097656 C 215.050781 256.5625 213.90625 257 212.753906 257.410156 C 211.597656 257.820312 210.433594 258.199219 209.257812 258.554688 C 208.085938 258.90625 206.902344 259.230469 205.714844 259.523438 C 204.523438 259.820312 203.328125 260.085938 202.125 260.324219 C 200.921875 260.558594 199.710938 260.769531 198.5 260.945312 C 197.285156 261.125 196.066406 261.273438 194.847656 261.390625 C 193.625 261.511719 192.402344 261.601562 191.179688 261.660156 C 189.953125 261.71875 188.726562 261.75 187.5 261.75 C 186.273438 261.75 185.046875 261.71875 183.820312 261.660156 C 182.597656 261.601562 181.375 261.511719 180.152344 261.390625 C 178.933594 261.273438 177.714844 261.125 176.5 260.945312 C 175.289062 260.769531 174.078125 260.558594 172.875 260.324219 C 171.671875 260.085938 170.476562 259.820312 169.285156 259.523438 C 168.097656 259.230469 166.914062 258.90625 165.742188 258.554688 C 164.566406 258.199219 163.402344 257.820312 162.246094 257.410156 C 161.09375 257 159.949219 256.5625 158.816406 256.097656 C 157.683594 255.632812 156.5625 255.140625 155.453125 254.621094 C 154.34375 254.101562 153.246094 253.554688 152.164062 252.984375 C 151.082031 252.410156 150.015625 251.8125 148.964844 251.1875 C 147.914062 250.5625 146.875 249.910156 145.855469 249.238281 C 144.835938 248.5625 143.832031 247.863281 142.847656 247.136719 C 141.863281 246.414062 140.894531 245.667969 139.949219 244.894531 C 139 244.125 138.070312 243.332031 137.160156 242.515625 C 136.253906 241.699219 135.363281 240.863281 134.496094 240.003906 C 133.628906 239.144531 132.785156 238.261719 131.960938 237.363281 C 131.136719 236.460938 130.335938 235.542969 129.558594 234.605469 C 128.777344 233.664062 128.023438 232.707031 127.292969 231.730469 C 126.5625 230.753906 125.855469 229.761719 125.175781 228.75 C 124.492188 227.742188 123.835938 226.714844 123.207031 225.671875 C 122.578125 224.628906 121.972656 223.574219 121.394531 222.5 C 120.816406 221.429688 120.265625 220.34375 119.738281 219.246094 C 119.214844 218.148438 118.71875 217.035156 118.25 215.914062 C 117.777344 214.792969 117.335938 213.65625 116.925781 212.515625 C 116.511719 211.371094 116.125 210.214844 115.769531 209.054688 C 115.414062 207.890625 115.085938 206.71875 114.789062 205.542969 C 114.492188 204.363281 114.222656 203.175781 113.984375 201.984375 C 113.742188 200.792969 113.535156 199.597656 113.355469 198.394531 C 113.175781 197.191406 113.023438 195.988281 112.902344 194.777344 C 112.785156 193.570312 112.691406 192.355469 112.632812 191.144531 C 112.574219 189.929688 112.542969 188.714844 112.542969 187.5 C 112.542969 186.285156 112.574219 185.070312 112.632812 183.855469 C 112.691406 182.644531 112.785156 181.429688 112.902344 180.222656 C 113.023438 179.011719 113.175781 177.808594 113.355469 176.605469 C 113.535156 175.402344 113.742188 174.207031 113.984375 173.015625 C 114.222656 171.824219 114.492188 170.636719 114.789062 169.457031 C 115.085938 168.28125 115.414062 167.109375 115.769531 165.945312 C 116.125 164.785156 116.511719 163.628906 116.925781 162.484375 C 117.335938 161.339844 117.777344 160.207031 118.25 159.085938 C 118.71875 157.964844 119.214844 156.851562 119.738281 155.753906 C 120.265625 154.65625 120.816406 153.570312 121.394531 152.5 C 121.972656 151.425781 122.578125 150.371094 123.207031 149.328125 C 123.835938 148.285156 124.492188 147.257812 125.175781 146.25 C 125.855469 145.238281 126.5625 144.246094 127.292969 143.269531 C 128.023438 142.292969 128.777344 141.335938 129.558594 140.394531 C 130.335938 139.457031 131.136719 138.535156 131.960938 137.636719 C 132.785156 136.738281 133.628906 135.855469 134.496094 134.996094 C 135.363281 134.136719 136.253906 133.300781 137.160156 132.484375 C 138.070312 131.667969 139 130.875 139.949219 130.105469 C 140.894531 129.332031 141.863281 128.585938 142.847656 127.863281 C 143.832031 127.136719 144.835938 126.4375 145.855469 125.761719 C 146.875 125.089844 147.914062 124.4375 148.964844 123.8125 C 150.015625 123.1875 151.082031 122.589844 152.164062 122.015625 C 153.246094 121.445312 154.34375 120.898438 155.453125 120.378906 C 156.5625 119.859375 157.683594 119.367188 158.816406 118.902344 C 159.949219 118.4375 161.09375 118 162.246094 117.589844 C 163.402344 117.179688 164.566406 116.800781 165.742188 116.445312 C 166.914062 116.09375 168.097656 115.769531 169.285156 115.476562 C 170.476562 115.179688 171.671875 114.914062 172.875 114.675781 C 174.078125 114.441406 175.289062 114.230469 176.5 114.054688 C 177.714844 113.875 178.933594 113.726562 180.152344 113.609375 C 181.375 113.488281 182.597656 113.398438 183.820312 113.339844 C 185.046875 113.28125 186.273438 113.25 187.5 113.25 C 188.726562 113.25 189.953125 113.28125 191.179688 113.339844 C 192.402344 113.398438 193.625 113.488281 194.847656 113.609375 C 196.066406 113.726562 197.285156 113.875 198.5 114.054688 C 199.710938 114.230469 200.921875 114.441406 202.125 114.675781 C 203.328125 114.914062 204.523438 115.179688 205.714844 115.476562 C 206.902344 115.769531 208.085938 116.09375 209.257812 116.445312 C 210.433594 116.800781 211.597656 117.179688 212.753906 117.589844 C 213.90625 118 215.050781 118.4375 216.183594 118.902344 C 217.316406 119.367188 218.4375 119.859375 219.546875 120.378906 C 220.65625 120.898438 221.753906 121.445312 222.835938 122.015625 C 223.917969 122.589844 224.984375 123.1875 226.035156 123.8125 C 227.085938 124.4375 228.125 125.089844 229.144531 125.761719 C 230.164062 126.4375 231.167969 127.136719 232.152344 127.863281 C 233.136719 128.585938 234.105469 129.332031 235.050781 130.105469 C 236 130.875 236.929688 131.667969 237.839844 132.484375 C 238.746094 133.300781 239.636719 134.136719 240.503906 134.996094 C 241.371094 135.855469 242.214844 136.738281 243.039062 137.636719 C 243.863281 138.535156 244.664062 139.457031 245.441406 140.394531 C 246.222656 141.335938 246.976562 142.292969 247.707031 143.269531 C 248.4375 144.246094 249.144531 145.238281 249.824219 146.25 C 250.507812 147.257812 251.164062 148.285156 251.792969 149.328125 C 252.421875 150.371094 253.027344 151.425781 253.605469 152.5 C 254.183594 153.570312 254.734375 154.65625 255.261719 155.753906 C 255.785156 156.851562 256.28125 157.964844 256.75 159.085938 C 257.222656 160.207031 257.664062 161.339844 258.074219 162.484375 C 258.488281 163.628906 258.875 164.785156 259.230469 165.945312 C 259.585938 167.109375 259.914062 168.28125 260.210938 169.457031 C 260.507812 170.636719 260.777344 171.824219 261.015625 173.015625 C 261.257812 174.207031 261.464844 175.402344 261.644531 176.605469 C 261.824219 177.808594 261.976562 179.011719 262.097656 180.222656 C 262.214844 181.429688 262.304688 182.644531 262.367188 183.855469 C 262.425781 185.070312 262.457031 186.285156 262.457031 187.5 Z M 262.457031 187.5 " clip-rule="nonzero"/></clipPath><linearGradient x1="53" gradientTransform="matrix(1.414286, 0, 0, 1.414286, 112.542856, 113.249997)" y1="104.999996" x2="53" gradientUnits="userSpaceOnUse" y2="-0.00000333649" id="09cc7bd957"><stop stop-opacity="1" stop-color="rgb(0%, 38.398743%, 87.799072%)" offset="0"/><stop stop-opacity="1" stop-color="rgb(0.038147%, 38.516235%, 87.846375%)" offset="0.0078125"/><stop stop-opacity="1" stop-color="rgb(0.114441%, 38.752747%, 87.942505%)" offset="0.015625"/><stop stop-opacity="1" stop-color="rgb(0.190735%, 38.989258%, 88.037109%)" offset="0.0234375"/><stop stop-opacity="1" stop-color="rgb(0.267029%, 39.224243%, 88.13324%)" offset="0.03125"/><stop stop-opacity="1" stop-color="rgb(0.343323%, 39.460754%, 88.227844%)" offset="0.0390625"/><stop stop-opacity="1" stop-color="rgb(0.419617%, 39.69574%, 88.322449%)" offset="0.046875"/><stop stop-opacity="1" stop-color="rgb(0.497437%, 39.932251%, 88.418579%)" offset="0.0546875"/><stop stop-opacity="1" stop-color="rgb(0.57373%, 40.168762%, 88.513184%)" offset="0.0625"/><stop stop-opacity="1" stop-color="rgb(0.650024%, 40.403748%, 88.609314%)" offset="0.0703125"/><stop stop-opacity="1" stop-color="rgb(0.726318%, 40.640259%, 88.703918%)" offset="0.078125"/><stop stop-opacity="1" stop-color="rgb(0.802612%, 40.87677%, 88.800049%)" offset="0.0859375"/><stop stop-opacity="1" stop-color="rgb(0.878906%, 41.111755%, 88.894653%)" offset="0.09375"/><stop stop-opacity="1" stop-color="rgb(0.956726%, 41.348267%, 88.990784%)" offset="0.101562"/><stop stop-opacity="1" stop-color="rgb(1.03302%, 41.583252%, 89.085388%)" offset="0.109375"/><stop stop-opacity="1" stop-color="rgb(1.109314%, 41.819763%, 89.181519%)" offset="0.117188"/><stop stop-opacity="1" stop-color="rgb(1.185608%, 42.056274%, 89.276123%)" offset="0.125"/><stop stop-opacity="1" stop-color="rgb(1.261902%, 42.29126%, 89.372253%)" offset="0.132812"/><stop stop-opacity="1" stop-color="rgb(1.338196%, 42.527771%, 89.466858%)" offset="0.140625"/><stop stop-opacity="1" stop-color="rgb(1.416016%, 42.764282%, 89.561462%)" offset="0.148438"/><stop stop-opacity="1" stop-color="rgb(1.49231%, 42.999268%, 89.657593%)" offset="0.15625"/><stop stop-opacity="1" stop-color="rgb(1.568604%, 43.235779%, 89.752197%)" offset="0.164062"/><stop stop-opacity="1" stop-color="rgb(1.644897%, 43.470764%, 89.848328%)" offset="0.171875"/><stop stop-opacity="1" stop-color="rgb(1.721191%, 43.707275%, 89.942932%)" offset="0.179688"/><stop stop-opacity="1" stop-color="rgb(1.799011%, 43.943787%, 90.039062%)" offset="0.1875"/><stop stop-opacity="1" stop-color="rgb(1.875305%, 44.178772%, 90.133667%)" offset="0.195312"/><stop stop-opacity="1" stop-color="rgb(1.951599%, 44.415283%, 90.229797%)" offset="0.203125"/><stop stop-opacity="1" stop-color="rgb(2.027893%, 44.651794%, 90.324402%)" offset="0.210938"/><stop stop-opacity="1" stop-color="rgb(2.104187%, 44.88678%, 90.420532%)" offset="0.21875"/><stop stop-opacity="1" stop-color="rgb(2.180481%, 45.123291%, 90.515137%)" offset="0.226562"/><stop stop-opacity="1" stop-color="rgb(2.258301%, 45.358276%, 90.611267%)" offset="0.234375"/><stop stop-opacity="1" stop-color="rgb(2.334595%, 45.594788%, 90.705872%)" offset="0.242188"/><stop stop-opacity="1" stop-color="rgb(2.410889%, 45.831299%, 90.800476%)" offset="0.25"/><stop stop-opacity="1" stop-color="rgb(2.487183%, 46.066284%, 90.896606%)" offset="0.257812"/><stop stop-opacity="1" stop-color="rgb(2.563477%, 46.302795%, 90.991211%)" offset="0.265625"/><stop stop-opacity="1" stop-color="rgb(2.639771%, 46.539307%, 91.087341%)" offset="0.273438"/><stop stop-opacity="1" stop-color="rgb(2.71759%, 46.774292%, 91.181946%)" offset="0.28125"/><stop stop-opacity="1" stop-color="rgb(2.793884%, 47.010803%, 91.278076%)" offset="0.289063"/><stop stop-opacity="1" stop-color="rgb(2.870178%, 47.245789%, 91.372681%)" offset="0.296875"/><stop stop-opacity="1" stop-color="rgb(2.946472%, 47.4823%, 91.468811%)" offset="0.304688"/><stop stop-opacity="1" stop-color="rgb(3.022766%, 47.718811%, 91.563416%)" offset="0.3125"/><stop stop-opacity="1" stop-color="rgb(3.100586%, 47.953796%, 91.659546%)" offset="0.320313"/><stop stop-opacity="1" stop-color="rgb(3.17688%, 48.190308%, 91.75415%)" offset="0.328125"/><stop stop-opacity="1" stop-color="rgb(3.253174%, 48.426819%, 91.850281%)" offset="0.335938"/><stop stop-opacity="1" stop-color="rgb(3.329468%, 48.661804%, 91.944885%)" offset="0.34375"/><stop stop-opacity="1" stop-color="rgb(3.405762%, 48.898315%, 92.041016%)" offset="0.351563"/><stop stop-opacity="1" stop-color="rgb(3.482056%, 49.133301%, 92.13562%)" offset="0.359375"/><stop stop-opacity="1" stop-color="rgb(3.559875%, 49.369812%, 92.230225%)" offset="0.367187"/><stop stop-opacity="1" stop-color="rgb(3.636169%, 49.606323%, 92.326355%)" offset="0.375"/><stop stop-opacity="1" stop-color="rgb(3.712463%, 49.841309%, 92.420959%)" offset="0.382812"/><stop stop-opacity="1" stop-color="rgb(3.788757%, 50.07782%, 92.51709%)" offset="0.390625"/><stop stop-opacity="1" stop-color="rgb(3.865051%, 50.314331%, 92.611694%)" offset="0.398437"/><stop stop-opacity="1" stop-color="rgb(3.941345%, 50.549316%, 92.707825%)" offset="0.40625"/><stop stop-opacity="1" stop-color="rgb(4.019165%, 50.785828%, 92.802429%)" offset="0.414062"/><stop stop-opacity="1" stop-color="rgb(4.095459%, 51.020813%, 92.89856%)" offset="0.421875"/><stop stop-opacity="1" stop-color="rgb(4.171753%, 51.257324%, 92.993164%)" offset="0.429688"/><stop stop-opacity="1" stop-color="rgb(4.248047%, 51.493835%, 93.089294%)" offset="0.4375"/><stop stop-opacity="1" stop-color="rgb(4.324341%, 51.728821%, 93.183899%)" offset="0.445312"/><stop stop-opacity="1" stop-color="rgb(4.402161%, 51.965332%, 93.280029%)" offset="0.453125"/><stop stop-opacity="1" stop-color="rgb(4.478455%, 52.201843%, 93.374634%)" offset="0.460938"/><stop stop-opacity="1" stop-color="rgb(4.554749%, 52.436829%, 93.469238%)" offset="0.46875"/><stop stop-opacity="1" stop-color="rgb(4.631042%, 52.67334%, 93.565369%)" offset="0.476563"/><stop stop-opacity="1" stop-color="rgb(4.707336%, 52.908325%, 93.659973%)" offset="0.484375"/><stop stop-opacity="1" stop-color="rgb(4.78363%, 53.144836%, 93.756104%)" offset="0.492188"/><stop stop-opacity="1" stop-color="rgb(4.86145%, 53.381348%, 93.850708%)" offset="0.5"/><stop stop-opacity="1" stop-color="rgb(4.937744%, 53.616333%, 93.946838%)" offset="0.507812"/><stop stop-opacity="1" stop-color="rgb(5.014038%, 53.852844%, 94.041443%)" offset="0.515625"/><stop stop-opacity="1" stop-color="rgb(5.090332%, 54.089355%, 94.137573%)" offset="0.523437"/><stop stop-opacity="1" stop-color="rgb(5.166626%, 54.324341%, 94.232178%)" offset="0.53125"/><stop stop-opacity="1" stop-color="rgb(5.24292%, 54.560852%, 94.328308%)" offset="0.539062"/><stop stop-opacity="1" stop-color="rgb(5.32074%, 54.795837%, 94.422913%)" offset="0.546875"/><stop stop-opacity="1" stop-color="rgb(5.397034%, 55.032349%, 94.519043%)" offset="0.554687"/><stop stop-opacity="1" stop-color="rgb(5.473328%, 55.26886%, 94.613647%)" offset="0.5625"/><stop stop-opacity="1" stop-color="rgb(5.549622%, 55.503845%, 94.709778%)" offset="0.570312"/><stop stop-opacity="1" stop-color="rgb(5.625916%, 55.740356%, 94.804382%)" offset="0.578125"/><stop stop-opacity="1" stop-color="rgb(5.703735%, 55.976868%, 94.898987%)" offset="0.585938"/><stop stop-opacity="1" stop-color="rgb(5.780029%, 56.211853%, 94.995117%)" offset="0.59375"/><stop stop-opacity="1" stop-color="rgb(5.856323%, 56.448364%, 95.089722%)" offset="0.601562"/><stop stop-opacity="1" stop-color="rgb(5.932617%, 56.68335%, 95.185852%)" offset="0.609375"/><stop stop-opacity="1" stop-color="rgb(6.008911%, 56.919861%, 95.280457%)" offset="0.617187"/><stop stop-opacity="1" stop-color="rgb(6.085205%, 57.156372%, 95.376587%)" offset="0.625"/><stop stop-opacity="1" stop-color="rgb(6.163025%, 57.391357%, 95.471191%)" offset="0.632812"/><stop stop-opacity="1" stop-color="rgb(6.239319%, 57.627869%, 95.567322%)" offset="0.640625"/><stop stop-opacity="1" stop-color="rgb(6.315613%, 57.862854%, 95.661926%)" offset="0.648437"/><stop stop-opacity="1" stop-color="rgb(6.391907%, 58.099365%, 95.758057%)" offset="0.65625"/><stop stop-opacity="1" stop-color="rgb(6.468201%, 58.335876%, 95.852661%)" offset="0.664062"/><stop stop-opacity="1" stop-color="rgb(6.544495%, 58.570862%, 95.948792%)" offset="0.671875"/><stop stop-opacity="1" stop-color="rgb(6.622314%, 58.807373%, 96.043396%)" offset="0.679688"/><stop stop-opacity="1" stop-color="rgb(6.698608%, 59.043884%, 96.138%)" offset="0.6875"/><stop stop-opacity="1" stop-color="rgb(6.774902%, 59.27887%, 96.234131%)" offset="0.695312"/><stop stop-opacity="1" stop-color="rgb(6.851196%, 59.515381%, 96.328735%)" offset="0.703125"/><stop stop-opacity="1" stop-color="rgb(6.92749%, 59.750366%, 96.424866%)" offset="0.710938"/><stop stop-opacity="1" stop-color="rgb(7.00531%, 59.986877%, 96.51947%)" offset="0.71875"/><stop stop-opacity="1" stop-color="rgb(7.081604%, 60.223389%, 96.615601%)" offset="0.726562"/><stop stop-opacity="1" stop-color="rgb(7.157898%, 60.458374%, 96.710205%)" offset="0.734375"/><stop stop-opacity="1" stop-color="rgb(7.234192%, 60.694885%, 96.806335%)" offset="0.742188"/><stop stop-opacity="1" stop-color="rgb(7.310486%, 60.931396%, 96.90094%)" offset="0.75"/><stop stop-opacity="1" stop-color="rgb(7.38678%, 61.166382%, 96.99707%)" offset="0.757812"/><stop stop-opacity="1" stop-color="rgb(7.4646%, 61.402893%, 97.091675%)" offset="0.765625"/><stop stop-opacity="1" stop-color="rgb(7.540894%, 61.637878%, 97.187805%)" offset="0.773437"/><stop stop-opacity="1" stop-color="rgb(7.617188%, 61.87439%, 97.28241%)" offset="0.78125"/><stop stop-opacity="1" stop-color="rgb(7.693481%, 62.110901%, 97.37854%)" offset="0.789062"/><stop stop-opacity="1" stop-color="rgb(7.769775%, 62.345886%, 97.473145%)" offset="0.796875"/><stop stop-opacity="1" stop-color="rgb(7.846069%, 62.582397%, 97.567749%)" offset="0.804687"/><stop stop-opacity="1" stop-color="rgb(7.923889%, 62.818909%, 97.663879%)" offset="0.8125"/><stop stop-opacity="1" stop-color="rgb(8.000183%, 63.053894%, 97.758484%)" offset="0.820312"/><stop stop-opacity="1" stop-color="rgb(8.076477%, 63.290405%, 97.854614%)" offset="0.828125"/><stop stop-opacity="1" stop-color="rgb(8.152771%, 63.525391%, 97.949219%)" offset="0.835938"/><stop stop-opacity="1" stop-color="rgb(8.229065%, 63.761902%, 98.045349%)" offset="0.84375"/><stop stop-opacity="1" stop-color="rgb(8.306885%, 63.998413%, 98.139954%)" offset="0.851562"/><stop stop-opacity="1" stop-color="rgb(8.383179%, 64.233398%, 98.236084%)" offset="0.859375"/><stop stop-opacity="1" stop-color="rgb(8.459473%, 64.46991%, 98.330688%)" offset="0.867188"/><stop stop-opacity="1" stop-color="rgb(8.535767%, 64.706421%, 98.426819%)" offset="0.875"/><stop stop-opacity="1" stop-color="rgb(8.612061%, 64.941406%, 98.521423%)" offset="0.882812"/><stop stop-opacity="1" stop-color="rgb(8.688354%, 65.177917%, 98.617554%)" offset="0.890625"/><stop stop-opacity="1" stop-color="rgb(8.766174%, 65.412903%, 98.712158%)" offset="0.898437"/><stop stop-opacity="1" stop-color="rgb(8.842468%, 65.649414%, 98.806763%)" offset="0.90625"/><stop stop-opacity="1" stop-color="rgb(8.918762%, 65.885925%, 98.902893%)" offset="0.914062"/><stop stop-opacity="1" stop-color="rgb(8.995056%, 66.120911%, 98.997498%)" offset="0.921875"/><stop stop-opacity="1" stop-color="rgb(9.07135%, 66.357422%, 99.093628%)" offset="0.929688"/><stop stop-opacity="1" stop-color="rgb(9.147644%, 66.593933%, 99.188232%)" offset="0.9375"/><stop stop-opacity="1" stop-color="rgb(9.225464%, 66.828918%, 99.284363%)" offset="0.945313"/><stop stop-opacity="1" stop-color="rgb(9.301758%, 67.06543%, 99.378967%)" offset="0.953125"/><stop stop-opacity="1" stop-color="rgb(9.378052%, 67.300415%, 99.475098%)" offset="0.960938"/><stop stop-opacity="1" stop-color="rgb(9.454346%, 67.536926%, 99.569702%)" offset="0.96875"/><stop stop-opacity="1" stop-color="rgb(9.53064%, 67.773438%, 99.665833%)" offset="0.976562"/><stop stop-opacity="1" stop-color="rgb(9.608459%, 68.008423%, 99.760437%)" offset="0.984375"/><stop stop-opacity="1" stop-color="rgb(9.684753%, 68.244934%, 99.856567%)" offset="0.992188"/><stop stop-opacity="1" stop-color="rgb(9.761047%, 68.481445%, 99.951172%)" offset="1"/></linearGradient></defs><rect x="-37.5" width="450" fill="#ffffff" y="-37.499999" height="449.999989" fill-opacity="1"/><rect x="-37.5" width="450" fill="#ffffff" y="-37.499999" height="449.999989" fill-opacity="1"/><g clip-path="url(#722330b76a)"><g clip-path="url(#b4090cd576)"><path fill="url(#09cc7bd957)" d="M 112.542969 113.25 L 112.542969 261.75 L 262.457031 261.75 L 262.457031 113.25 Z M 112.542969 113.25 " fill-rule="nonzero"/></g></g><path fill="#ffffff" d="M 145.554688 186.792969 C 145.554688 163.359375 164.550781 144.363281 187.984375 144.363281 C 211.414062 144.363281 230.410156 163.359375 230.410156 186.792969 C 230.410156 210.226562 211.414062 229.222656 187.984375 229.222656 C 179.601562 229.222656 171.78125 226.789062 165.199219 222.589844 L 151.667969 227.328125 C 147.722656 228.707031 143.945312 224.878906 145.382812 220.953125 L 150.5625 206.800781 C 147.367188 200.839844 145.554688 194.023438 145.554688 186.792969 Z M 187.984375 151.4375 C 168.457031 151.4375 152.625 167.265625 152.625 186.792969 C 152.625 193.332031 154.398438 199.449219 157.488281 204.695312 C 158.023438 205.609375 158.125 206.710938 157.761719 207.707031 L 153.566406 219.171875 L 164.527344 215.335938 C 165.601562 214.957031 166.792969 215.121094 167.726562 215.773438 C 173.460938 219.792969 180.441406 222.148438 187.984375 222.148438 C 207.511719 222.148438 223.339844 206.320312 223.339844 186.792969 C 223.339844 167.265625 207.511719 151.4375 187.984375 151.4375 Z M 187.984375 151.4375 " fill-opacity="1" fill-rule="evenodd"/><path fill="#ffffff" d="M 178.492188 177.140625 C 179.722656 175.988281 181.59375 175.863281 182.96875 176.84375 L 195.378906 185.710938 L 203.867188 177.222656 C 205.25 175.839844 207.488281 175.839844 208.871094 177.222656 C 210.25 178.601562 210.25 180.839844 208.871094 182.222656 L 198.261719 192.828125 C 197.039062 194.050781 195.113281 194.210938 193.707031 193.207031 L 181.214844 184.285156 L 172.015625 192.90625 C 170.589844 194.242188 168.355469 194.171875 167.019531 192.746094 C 165.683594 191.320312 165.753906 189.085938 167.179688 187.75 Z M 178.492188 177.140625 " fill-opacity="1" fill-rule="evenodd"/></svg>