<svg xmlns="http://www.w3.org/2000/svg" xmlns:xlink="http://www.w3.org/1999/xlink" width="500" zoomAndPan="magnify" viewBox="0 0 375 374.999991" height="500" preserveAspectRatio="xMidYMid meet" version="1.0"><defs><clipPath id="33073ffb89"><path d="M 112.5 112.5 L 262.5 112.5 L 262.5 262.5 L 112.5 262.5 Z M 112.5 112.5 " clip-rule="nonzero"/></clipPath></defs><g clip-path="url(#33073ffb89)"><path fill="#000000" d="M 221.707031 231.390625 L 117.484375 262.667969 L 170.9375 209.214844 C 173.242188 210.613281 175.742188 211.316406 178.4375 211.332031 C 180.394531 211.320312 182.273438 210.933594 184.078125 210.179688 C 185.882812 209.421875 187.476562 208.351562 188.855469 206.96875 C 189.539062 206.285156 190.152344 205.542969 190.6875 204.738281 C 191.226562 203.933594 191.679688 203.085938 192.050781 202.191406 C 192.421875 201.300781 192.699219 200.378906 192.886719 199.429688 C 193.078125 198.484375 193.171875 197.527344 193.171875 196.558594 C 193.171875 195.59375 193.078125 194.636719 192.886719 193.6875 C 192.699219 192.738281 192.421875 191.820312 192.050781 190.925781 C 191.679688 190.03125 191.226562 189.183594 190.6875 188.382812 C 190.152344 187.578125 189.539062 186.835938 188.855469 186.152344 C 188.160156 185.488281 187.40625 184.894531 186.597656 184.375 C 185.789062 183.855469 184.9375 183.417969 184.042969 183.058594 C 183.148438 182.703125 182.230469 182.433594 181.285156 182.25 C 180.339844 182.070312 179.386719 181.976562 178.425781 181.976562 C 177.460938 181.976562 176.507812 182.070312 175.5625 182.25 C 174.617188 182.433594 173.699219 182.703125 172.804688 183.058594 C 171.914062 183.417969 171.0625 183.855469 170.25 184.375 C 169.441406 184.894531 168.6875 185.488281 167.992188 186.152344 C 166.601562 187.53125 165.535156 189.128906 164.785156 190.941406 C 164.039062 192.75 163.667969 194.636719 163.675781 196.59375 C 163.726562 199.320312 164.453125 201.851562 165.863281 204.183594 L 112.40625 257.609375 L 143.609375 153.261719 L 190.152344 136.308594 L 238.722656 184.945312 Z M 243.277344 179.285156 L 195.609375 131.785156 L 208.308594 112.738281 L 262.277344 166.617188 Z M 243.277344 179.285156 " fill-opacity="1" fill-rule="nonzero"/></g></svg>