<svg xmlns="http://www.w3.org/2000/svg" xmlns:xlink="http://www.w3.org/1999/xlink" width="500" zoomAndPan="magnify" viewBox="0 0 375 374.999991" height="500" preserveAspectRatio="xMidYMid meet" version="1.0"><defs><clipPath id="fdb5bde594"><path d="M 107.707031 107.707031 L 267.457031 107.707031 L 267.457031 267.457031 L 107.707031 267.457031 Z M 107.707031 107.707031 " clip-rule="nonzero"/></clipPath></defs><g clip-path="url(#fdb5bde594)"><path fill="#000000" d="M 250.886719 192.542969 L 250.886719 238.535156 C 250.886719 254.457031 237.878906 267.460938 221.960938 267.460938 L 136.644531 267.460938 C 120.726562 267.460938 107.71875 254.457031 107.71875 238.535156 L 107.71875 153.222656 C 107.71875 137.300781 120.726562 124.296875 136.644531 124.296875 L 182.636719 124.296875 L 182.636719 134.75 L 136.644531 134.75 C 126.492188 134.75 118.171875 143.070312 118.171875 153.222656 L 118.171875 238.535156 C 118.171875 248.6875 126.492188 257.011719 136.644531 257.011719 L 221.960938 257.011719 C 232.105469 257.011719 240.425781 248.6875 240.425781 238.535156 L 240.425781 192.542969 Z M 237.929688 158.769531 L 216.410156 137.25 L 165.761719 187.898438 L 187.28125 209.417969 Z M 223.804688 129.859375 L 245.320312 151.378906 L 252.683594 144.019531 L 231.160156 122.496094 Z M 176.296875 213.214844 L 161.96875 198.882812 L 159.351562 215.828125 Z M 188.078125 221.972656 L 146.839844 228.335938 L 153.460938 185.40625 C 179.359375 159.503906 205.253906 133.609375 231.15625 107.710938 L 267.457031 144.015625 C 241.5625 169.910156 215.660156 195.808594 189.765625 221.707031 L 188.074219 221.96875 Z M 188.078125 221.972656 " fill-opacity="1" fill-rule="nonzero"/></g></svg>