<svg xmlns="http://www.w3.org/2000/svg" xmlns:xlink="http://www.w3.org/1999/xlink" width="500" zoomAndPan="magnify" viewBox="0 0 375 374.999991" height="500" preserveAspectRatio="xMidYMid meet" version="1.0"><defs><clipPath id="1992df60d0"><path d="M 114 170 L 261 170 L 261 255.84375 L 114 255.84375 Z M 114 170 " clip-rule="nonzero"/></clipPath><clipPath id="01f32d4346"><path d="M 136 119.34375 L 219 119.34375 L 219 217 L 136 217 Z M 136 119.34375 " clip-rule="nonzero"/></clipPath></defs><g clip-path="url(#1992df60d0)"><path fill="#000000" d="M 122.957031 254.34375 C 120.964844 256.34375 117.722656 256.34375 115.730469 254.34375 C 113.734375 252.347656 113.734375 249.109375 115.730469 247.109375 L 166.847656 195.921875 C 168.6875 194.078125 171.621094 193.914062 173.65625 195.539062 L 204.15625 219.976562 L 252.042969 172.03125 C 254.035156 170.03125 257.277344 170.03125 259.269531 172.03125 C 261.265625 174.03125 261.265625 177.273438 259.269531 179.265625 L 208.152344 230.453125 C 206.3125 232.304688 203.378906 232.46875 201.34375 230.835938 L 170.84375 206.398438 Z M 122.957031 254.34375 " fill-opacity="1" fill-rule="evenodd"/></g><path fill="#000000" d="M 235.210938 180.769531 C 232.386719 180.769531 230.097656 178.476562 230.097656 175.648438 C 230.097656 172.824219 232.386719 170.53125 235.210938 170.53125 L 255.65625 170.53125 C 258.476562 170.53125 260.769531 172.824219 260.769531 175.648438 L 260.769531 196.125 C 260.769531 198.949219 258.476562 201.242188 255.65625 201.242188 C 252.835938 201.242188 250.542969 198.949219 250.542969 196.125 L 250.542969 180.769531 Z M 235.210938 180.769531 " fill-opacity="1" fill-rule="evenodd"/><g clip-path="url(#01f32d4346)"><path fill="#000000" d="M 136.429688 216.730469 L 136.429688 195.96875 C 136.429688 195.421875 136.640625 194.902344 137.03125 194.519531 C 137.410156 194.132812 137.929688 193.921875 138.476562 193.921875 L 149.238281 193.921875 C 150.367188 193.921875 151.28125 194.835938 151.28125 195.96875 L 151.28125 201.851562 Z M 158.710938 194.410156 L 158.710938 158.777344 C 158.710938 158.238281 158.921875 157.722656 159.3125 157.332031 C 159.691406 156.949219 160.210938 156.730469 160.753906 156.730469 L 171.515625 156.730469 C 172.648438 156.730469 173.5625 157.652344 173.5625 158.777344 L 173.5625 188.003906 C 169.554688 186.925781 165.132812 187.988281 162.03125 191.09375 Z M 180.992188 192.679688 L 180.992188 121.597656 C 180.992188 121.050781 181.203125 120.53125 181.589844 120.148438 C 181.972656 119.765625 182.492188 119.546875 183.035156 119.546875 L 193.796875 119.546875 C 194.34375 119.546875 194.859375 119.765625 195.242188 120.148438 C 195.632812 120.53125 195.84375 121.050781 195.84375 121.597656 L 195.84375 204.574219 C 190.847656 200.574219 184.636719 195.597656 180.992188 192.679688 Z M 203.269531 210.527344 L 203.269531 143.90625 C 203.269531 142.773438 204.183594 141.859375 205.316406 141.859375 L 216.078125 141.859375 C 217.210938 141.859375 218.121094 142.773438 218.121094 143.90625 L 218.121094 196.34375 L 203.652344 210.832031 C 203.652344 210.832031 203.515625 210.722656 203.269531 210.527344 Z M 203.269531 210.527344 " fill-opacity="1" fill-rule="evenodd"/></g></svg>