<svg xmlns="http://www.w3.org/2000/svg" xmlns:xlink="http://www.w3.org/1999/xlink" width="500" zoomAndPan="magnify" viewBox="0 0 375 374.999991" height="500" preserveAspectRatio="xMidYMid meet" version="1.0"><defs><clipPath id="8d4760cd71"><path d="M 112.5 112.5 L 262.5 112.5 L 262.5 262.5 L 112.5 262.5 Z M 112.5 112.5 " clip-rule="nonzero"/></clipPath></defs><g clip-path="url(#8d4760cd71)"><path fill="#000000" d="M 240.53125 134.46875 C 226.367188 120.300781 207.53125 112.5 187.5 112.5 C 167.464844 112.5 148.632812 120.300781 134.46875 134.46875 C 120.300781 148.632812 112.5 167.464844 112.5 187.5 C 112.5 207.53125 120.300781 226.367188 134.46875 240.53125 C 148.632812 254.699219 167.464844 262.5 187.5 262.5 C 207.53125 262.5 226.367188 254.699219 240.53125 240.53125 C 254.699219 226.367188 262.5 207.53125 262.5 187.5 C 262.5 167.464844 254.699219 148.632812 240.53125 134.46875 Z M 120.796875 187.5 C 120.796875 179.148438 122.34375 171.148438 125.160156 163.773438 L 152.136719 163.773438 C 150.925781 171.324219 150.296875 179.3125 150.296875 187.5 C 150.296875 195.410156 150.882812 203.140625 152.015625 210.464844 L 124.871094 210.464844 C 122.234375 203.300781 120.796875 195.566406 120.796875 187.5 Z M 158.589844 187.5 C 158.589844 179.261719 159.261719 171.257812 160.539062 163.773438 L 183.351562 163.773438 L 183.351562 210.464844 L 160.410156 210.464844 C 159.214844 203.203125 158.589844 195.460938 158.589844 187.5 Z M 207.117188 139.152344 C 209.390625 144.03125 211.277344 149.53125 212.742188 155.480469 L 191.648438 155.480469 L 191.648438 121.5625 C 197.269531 123.625 202.742188 129.78125 207.117188 139.152344 Z M 183.351562 121.5625 L 183.351562 155.480469 L 162.257812 155.480469 C 163.722656 149.53125 165.609375 144.03125 167.882812 139.152344 C 172.257812 129.78125 177.730469 123.625 183.351562 121.5625 Z M 183.351562 218.761719 L 183.351562 253.4375 C 177.730469 251.375 172.257812 245.21875 167.882812 235.847656 C 165.511719 230.765625 163.566406 225.003906 162.074219 218.761719 Z M 191.648438 253.4375 L 191.648438 218.761719 L 212.925781 218.761719 C 211.433594 225.003906 209.488281 230.765625 207.117188 235.847656 C 202.742188 245.21875 197.269531 251.375 191.648438 253.4375 Z M 191.648438 210.464844 L 191.648438 163.773438 L 214.460938 163.773438 C 215.738281 171.257812 216.410156 179.261719 216.410156 187.5 C 216.410156 195.460938 215.785156 203.203125 214.589844 210.464844 Z M 222.863281 163.773438 L 249.839844 163.773438 C 252.65625 171.148438 254.203125 179.148438 254.203125 187.5 C 254.203125 195.566406 252.765625 203.300781 250.128906 210.464844 L 222.984375 210.464844 C 224.117188 203.140625 224.703125 195.410156 224.703125 187.5 C 224.703125 179.3125 224.074219 171.324219 222.863281 163.773438 Z M 246 155.480469 L 221.257812 155.480469 C 219.605469 148.234375 217.382812 141.535156 214.632812 135.644531 C 212.5 131.078125 210.117188 127.140625 207.539062 123.871094 C 224.042969 129.082031 237.796875 140.550781 246 155.480469 Z M 167.460938 123.871094 C 164.882812 127.140625 162.5 131.078125 160.367188 135.644531 C 157.617188 141.535156 155.394531 148.234375 153.742188 155.480469 L 129 155.480469 C 137.203125 140.550781 150.957031 129.082031 167.460938 123.871094 Z M 128.589844 218.761719 L 153.566406 218.761719 C 155.238281 226.296875 157.523438 233.257812 160.367188 239.355469 C 162.5 243.921875 164.882812 247.859375 167.460938 251.128906 C 150.675781 245.832031 136.742188 234.0625 128.589844 218.761719 Z M 207.539062 251.128906 C 210.117188 247.859375 212.5 243.921875 214.632812 239.355469 C 217.476562 233.257812 219.761719 226.296875 221.433594 218.761719 L 246.410156 218.761719 C 238.257812 234.0625 224.324219 245.832031 207.539062 251.128906 Z M 207.539062 251.128906 " fill-opacity="1" fill-rule="nonzero"/></g></svg>